# xmcd
#
# Track frame offsets: 
#        150
#        9128
#        19136
#        29659
#        43392
#        77676
#        92136
#        104040
#        117478
#        134095
#        144448
#        148327
#        156692
#        167962
#        185034
#        194295
#        206174
#
# Disc length: 3050 seconds
#
# Revision: 0
# Processed by: cddbd v1.5.2PL0 Copyright (c) Steve Scherf et al.
# Submitted via: ExactAudioCopy v0.99pb5
#
DISCID=0e0be811
DTITLE=Elvis Presley  - I Believe The Gospel Masters [Disc 4]
DYEAR=1900
DGENRE=
TTITLE0=Down By The Riverside \\ When The Saints Go Marching In
TTITLE1=Sing You Children
TTITLE2=Swing Down, Sweet Chariot
TTITLE3=Let Us Pray
TTITLE4=Medley: Where Could I Go But To The Lord \\ Up Above My Head \\
TTITLE4=Saved
TTITLE5=If I Can Dream
TTITLE6=Help Me [live]
TTITLE7=Why Me Lord [live]
TTITLE8=How Great Thou Art [live]
TTITLE9=I, John
TTITLE10=Bosom Of Abraham
TTITLE11=You Better Run
TTITLE12=Lead Me, Guide Me
TTITLE13=Turn Your Eyes Upon Jesus \\ Nearer My God To Thee
TTITLE14=Oh, How I Love Jesus
TTITLE15=Show Me Thy Ways, O Lord
TTITLE16=Hide Thou Me
EXTD=
EXTT0=
EXTT1=
EXTT2=
EXTT3=
EXTT4=
EXTT5=
EXTT6=
EXTT7=
EXTT8=
EXTT9=
EXTT10=
EXTT11=
EXTT12=
EXTT13=
EXTT14=
EXTT15=
EXTT16=
PLAYORDER=
